PathFileType	4	(X/Y/Z)	C:\Users\WrightLab\Desktop\Jo\P1.2Trial27.trc
DataRate	CameraRate	NumFrames	NumMarkers	Units	OrigDataRate	OrigDataStartFrame	OrigNumFrames
100.00	100.00	       19	19	mm	100.00	592	       946
Frame#	Time	Headset_Front			Headset_Back			Headset_Left			Headset_Right			Left_Shoulder			Right_Shoulder			Sternum			C7			Left Elbow			Right Elbow			Left Wrist			Right Wrist			Left ASIS			Right ASIS			S2			Left Knee			Right Knee			Left Ankle			Right Ankle			
		X1	Y1	Z1	X2	Y2	Z2	X3	Y3	Z3	X4	Y4	Z4	X5	Y5	Z5	X6	Y6	Z6	X7	Y7	Z7	X8	Y8	Z8	X9	Y9	Z9	X10	Y10	Z10	X11	Y11	Z11	X12	Y12	Z12	X13	Y13	Z13	X14	Y14	Z14	X15	Y15	Z15	X16	Y16	Z16	X17	Y17	Z17	X18	Y18	Z18	X19	Y19	Z19	

592	5.910	-299.26025	1262.54614	-229.57042	-353.54828	1492.34509	-32.63644	-440.31052	1393.52637	-142.99454	-218.89400	1333.86011	-123.87285	-582.51947	1246.41663	-73.70928	-184.62836	1200.28418	51.69494	-371.67258	1125.90344	-94.14727	-405.30142	1309.81006	97.65044	-698.95453	983.60522	-112.37829	-125.35212	964.07288	151.63538	-676.32465	873.94824	-321.37555	-37.60459	711.45770	123.51431	-563.04834	851.08691	-49.94569	-290.23276	797.77698	9.80428	-491.23560	937.38062	234.16936	-682.73907	446.17798	-4.09398	-266.23349	423.56519	43.20466	-827.22705	140.16428	39.62331	-217.58112	92.02101	124.64522	
593	5.920	-306.11853	1264.80933	-231.22397	-360.86053	1491.98596	-31.57351	-448.71750	1394.49231	-142.59787	-225.76295	1335.79822	-125.21321	-589.13574	1245.42505	-74.13616	-191.07477	1199.51575	51.77814	-377.50928	1125.65710	-95.27561	-411.77158	1308.70020	97.13974	-709.84076	983.83466	-109.99320	-130.80392	963.93787	150.14853	-694.40308	874.39984	-319.00507	-42.14035	711.41119	117.90898	-567.44318	848.89911	-52.80576	-294.48099	797.67505	7.76112	-497.08691	935.65631	232.28275	-685.71930	442.96567	-9.05604	-268.36752	423.12390	41.87487	-828.42615	137.62593	34.96136	-217.83276	92.65716	123.99284	
594	5.930	-313.16754	1267.64038	-232.42690	-368.64236	1491.56580	-29.37077	-455.09805	1394.40015	-142.03625	-233.04337	1336.78870	-126.07380	-595.57935	1244.64319	-75.29671	-196.95908	1199.35791	50.91350	-383.22836	1125.00171	-96.31665	-418.74460	1307.73462	96.06551	-720.41632	984.19598	-108.32662	-136.01512	963.04645	147.95599	-713.72955	875.57599	-317.07608	-48.48740	710.72278	112.94453	-572.29425	847.87079	-54.90752	-299.36447	797.13940	6.33081	-502.82620	933.94775	229.83205	-688.90881	441.88629	-13.34760	-270.84418	422.16827	40.77323	-828.32385	135.91666	28.58111	-218.26389	94.27385	122.72842	
595	5.940	-320.09531	1270.14160	-234.69768	-376.80151	1490.95642	-27.96969	-463.86792	1395.26270	-141.79102	-240.05688	1339.09253	-127.05479	-602.98224	1243.83923	-76.06229	-204.29269	1198.66943	51.10792	-389.51587	1124.80676	-97.57925	-425.90570	1306.55188	95.08643	-728.96088	983.02203	-104.35946	-142.05055	962.71570	146.34496	-731.63940	875.72760	-314.20984	-53.25753	710.28448	107.77384	-577.02441	845.74597	-57.03780	-304.49792	797.05225	4.44841	-509.72980	932.23822	227.89542	-691.16882	439.42599	-18.23342	-273.71448	422.72672	39.34797	-828.44641	132.69441	24.66080	-218.38087	94.37070	122.85324	
596	5.950	-327.38235	1272.12195	-235.45200	-385.08643	1490.71240	-27.36211	-471.36053	1395.78735	-141.70634	-246.48819	1340.84277	-127.82973	-610.25214	1242.95276	-77.34560	-210.93903	1199.26819	50.85115	-396.35403	1124.42407	-99.53949	-433.07660	1305.17822	94.18639	-738.22546	983.04254	-101.44847	-147.73296	961.90533	144.87279	-749.37695	875.47540	-310.23132	-59.60807	709.34894	102.73316	-581.79565	844.46216	-61.38679	-309.38336	796.10437	3.44320	-515.69604	929.92145	225.17406	-693.18494	437.10861	-22.72464	-275.74216	421.54691	38.15816	-828.17493	128.43344	22.92454	-218.49690	94.46838	122.97733	
597	5.960	-335.05179	1274.71423	-237.21674	-393.46469	1489.84338	-24.99231	-479.84512	1396.05322	-141.04619	-254.52762	1342.18262	-128.54520	-618.06323	1241.56348	-77.76317	-217.76831	1198.82214	48.93677	-402.41281	1123.46692	-100.53310	-440.32339	1304.32043	93.25668	-748.69299	982.45276	-98.85715	-153.61797	961.67822	142.91194	-767.03717	875.15198	-305.95084	-65.63161	708.81140	97.91363	-586.65338	843.15283	-64.61179	-314.28036	795.85443	1.63014	-522.85565	928.12402	222.87363	-695.45752	435.13275	-26.93372	-278.10168	421.28375	36.37271	-828.00031	124.94582	22.19973	-218.68617	94.69891	123.65670	
598	5.970	-342.12549	1276.74841	-238.11922	-402.42734	1489.15369	-23.56860	-488.43930	1395.89380	-140.49683	-262.30869	1343.61108	-129.57120	-626.07764	1240.74756	-78.91240	-225.40642	1198.98291	48.12069	-409.18811	1123.49463	-101.99230	-448.63730	1303.16663	92.70678	-759.03387	982.61676	-96.43605	-159.84265	961.09558	140.26135	-784.51923	874.46533	-302.03452	-72.23595	708.49005	92.87136	-591.60449	841.01227	-67.53570	-319.54755	795.49139	-0.57280	-530.15076	925.52948	220.39163	-697.47571	433.51837	-32.69658	-280.93173	421.14401	35.15948	-827.70660	121.83026	19.20073	-217.54561	95.29072	123.02163	
599	5.980	-350.48346	1278.69775	-239.30774	-411.38208	1486.43787	-21.85975	-496.69205	1396.46106	-141.05333	-271.40967	1344.57483	-129.28738	-634.68634	1239.83362	-79.53430	-233.02249	1197.81287	45.91819	-416.08795	1122.87280	-102.65472	-456.57217	1301.45020	92.12060	-767.30450	980.79730	-92.75700	-167.41666	960.52948	139.75778	-802.17499	873.70636	-297.65338	-80.09159	708.01697	87.66232	-596.65613	839.79443	-71.36424	-324.82733	794.61487	-1.81812	-537.95178	923.65375	218.11111	-699.04102	431.04404	-38.13459	-283.37457	420.67349	33.45689	-827.80933	117.77381	17.81984	-217.76239	95.59464	122.46101	
600	5.990	-358.26385	1280.60620	-239.63203	-420.81857	1487.69275	-20.88498	-505.63297	1396.26575	-140.56770	-279.31232	1345.58789	-129.16985	-643.19769	1238.30225	-78.97056	-242.10989	1197.27161	46.68073	-423.44803	1122.83228	-103.80517	-466.37607	1300.23645	91.26453	-777.80566	981.16046	-90.29671	-174.15956	959.80499	138.07846	-819.38892	872.96436	-293.37082	-86.97762	707.83655	82.31262	-602.07294	837.85809	-73.60258	-330.41089	794.65015	-3.27529	-545.50330	921.30139	215.22308	-701.42511	428.85059	-44.73843	-286.08401	420.03528	32.22570	-828.86053	114.21646	16.33452	-217.80382	95.71104	122.56770	
601	6.000	-366.78799	1282.54626	-241.38541	-430.43518	1487.44958	-19.84695	-514.06146	1395.88440	-140.04153	-288.47916	1346.48303	-129.19308	-652.34137	1237.51978	-79.32601	-250.61661	1196.57593	47.15360	-431.90219	1123.05029	-105.47527	-475.38367	1299.10608	91.23919	-787.90106	980.23083	-88.06960	-182.57689	959.46210	136.70831	-836.60596	872.06885	-288.71677	-95.88627	707.00470	77.49763	-607.32959	836.17657	-78.25831	-336.12271	794.22455	-6.07693	-553.24023	918.38934	212.31268	-703.40472	426.16895	-50.55223	-289.22162	419.23285	30.96380	-831.63348	111.81496	14.02049	-217.56950	96.87453	121.45373	
602	6.010	-374.90613	1283.72229	-241.36369	-439.97537	1486.74817	-18.61215	-523.30090	1396.56128	-140.14059	-297.03894	1347.29773	-128.80344	-662.28918	1236.65625	-78.86980	-258.94745	1196.70361	44.41675	-439.71967	1123.45105	-106.99361	-483.14902	1297.28125	90.55143	-798.75623	979.56409	-86.08247	-190.35510	958.52838	135.36533	-853.75861	870.94025	-284.31320	-102.59311	707.30579	72.99503	-613.16174	835.19519	-81.82143	-342.18994	794.46088	-8.77261	-561.84076	916.16620	209.47543	-705.46222	424.07513	-56.57354	-292.25470	418.18002	29.66058	-835.02106	110.17912	10.98577	-217.64003	96.98800	121.65200	
603	6.020	-384.01639	1285.38257	-241.64522	-449.52722	1486.67334	-18.35149	-532.48291	1396.69336	-140.24051	-306.74963	1347.99817	-128.28833	-671.95807	1235.54443	-78.48840	-267.25873	1196.46570	43.79779	-448.34244	1122.94116	-108.47278	-493.17883	1296.49988	89.67957	-808.84552	978.81036	-84.25687	-199.18692	958.10669	133.66693	-870.65210	869.78058	-279.61902	-111.90009	707.18518	67.92995	-618.93793	833.40839	-84.98549	-348.33682	794.62372	-11.49756	-570.31476	913.11835	207.06590	-707.28143	421.42020	-62.63578	-294.99588	417.46112	27.98971	-838.76074	108.27933	8.46336	-217.59395	97.19164	121.77786	
604	6.030	-392.53131	1286.19141	-242.37514	-459.53107	1486.42834	-17.47111	-542.01050	1397.40234	-140.99750	-316.23489	1348.42615	-128.42267	-682.30493	1235.18555	-79.05229	-277.22821	1195.38196	49.85040	-457.17480	1123.85474	-110.34291	-502.70905	1295.31567	89.42653	-819.24023	978.41589	-82.88242	-207.53888	957.60132	131.16121	-887.18073	867.86981	-274.98114	-119.02946	707.68848	63.43806	-625.13947	832.27734	-88.76090	-354.71323	794.79169	-13.77146	-579.41095	910.71423	204.28554	-710.11230	420.40302	-70.15590	-298.22144	416.06497	26.78556	-842.42401	106.30086	5.86982	-218.00618	98.52931	121.81451	
605	6.040	-401.35611	1287.55884	-242.59132	-469.07022	1486.53955	-17.41491	-551.01337	1398.23120	-141.55594	-324.82700	1349.21558	-128.67719	-692.17285	1234.12024	-77.82314				-466.43042	1124.44653	-111.78724	-511.32733	1293.93640	88.97532	-829.78473	977.41144	-81.73697	-216.48538	956.93634	129.34123	-903.52362	866.38544	-270.03192	-128.00554	707.51257	58.90599	-631.63428	831.28271	-92.03735	-361.69086	795.40198	-16.91872	-587.85583	907.76752	200.93375	-712.68494	419.00650	-76.82395	-301.35919	415.28119	25.32776	-845.98749	104.02755	2.77525	-217.69577	100.64469	121.23109	
606	6.050	-410.72711	1288.79846	-242.90855	-478.61685	1486.64868	-16.59169	-560.58020	1398.76367	-141.63820	-334.56772	1350.39026	-128.72765	-702.63721	1233.94995	-78.13327	-295.99203	1195.83032	41.74140	-475.81918	1124.82129	-113.71567	-523.16852	1293.76050	86.37026	-839.04675	976.01654	-79.91252	-226.73216	955.54895	127.37132	-919.80450	864.56732	-264.61499	-137.05887	707.90228	53.64936	-638.26715	831.33899	-97.55186	-368.87543	796.09680	-19.29249	-596.45917	905.41565	197.48175	-716.88385	419.84393	-86.11504	-305.41510	414.71738	23.83428	-848.89612	101.74183	-0.96324	-217.89027	100.95612	121.54422	
607	6.060	-419.35922	1289.91809	-243.48705	-488.76880	1487.33667	-16.74005	-570.05359	1399.51270	-142.14316	-343.99872	1350.27539	-128.28697	-713.00903	1233.42322	-77.91666	-305.22076	1196.35400	41.36993	-485.62442	1125.86523	-115.72771	-532.90167	1292.51123	85.51032	-848.92639	975.20819	-79.36501	-235.92639	955.54077	124.64346	-935.32404	862.80908	-260.04370	-146.44069	708.03711	50.61580	-644.75586	830.55585	-102.18251	-375.99142	797.49695	-22.29284	-605.91144	904.03528	194.54514	-720.96149	419.31137	-92.67103	-309.08005	414.12546	23.26081	-851.19867	99.83568	-4.41403	-218.13261	101.86928	120.95833	
608	6.070	-428.53937	1291.80127	-244.91159	-498.70319	1487.83948	-18.11839	-578.18964	1400.16626	-143.26518	-353.02655	1351.94116	-128.25871	-723.06750	1232.80713	-77.91662	-314.54788	1196.59509	38.67424	-495.76315	1126.90491	-117.25029	-542.32220	1291.99988	84.62109	-859.60950	974.93433	-78.23718	-246.30127	955.22253	122.17527	-950.72461	860.03809	-254.35173	-156.12100	708.18231	46.95118	-652.40497	829.37866	-104.72596	-384.39023	798.36353	-25.34332	-614.71417	902.01776	191.20731	-725.79742	420.52347	-100.54994	-313.42758	414.35065	22.84114	-853.21265	98.75700	-8.05141	-218.29543	104.66090	120.20469	
609	6.080	-437.27878	1292.53137	-244.93991	-508.57788	1488.99060	-18.22187	-587.54498	1401.49402	-143.83887	-363.01202	1352.71680	-129.24239	-733.19073	1232.36963	-78.34088	-324.79373	1196.24792	40.65229	-505.71771	1127.75500	-119.48745	-552.78705	1292.11194	83.06108	-869.42255	974.42255	-77.69589	-256.03342	955.31873	119.55626	-965.32233	857.39716	-249.04745	-165.43677	708.52692	42.97575	-659.88135	829.16559	-109.12697	-392.08908	799.76990	-27.99634	-623.30029	900.20331	187.42686	-731.29382	422.28506	-107.49132	-317.73053	414.30289	20.84963	-854.98425	97.47593	-10.26060	-219.21637	106.90269	119.90861	
610	6.090	-446.83533	1294.35706	-246.50981	-518.36633	1489.34033	-18.51888	-596.95209	1402.50586	-145.45323	-372.96417	1353.77295	-128.87352	-743.63635	1232.66602	-78.57945	-334.04602	1196.52686	38.36852	-515.59229	1128.65186	-121.65572	-561.64771	1291.54932	81.72568	-879.61871	973.79901	-76.99053	-268.71008	954.81396	117.22102	-979.72943	854.71814	-243.24254	-176.05273	708.85400	39.36189	-667.79980	828.97577	-112.62296	-401.18472	801.40540	-30.45345	-632.42474	899.29169	184.23155	-736.92505	424.24640	-114.04839	-322.60449	415.09186	20.22694	-857.48816	96.37117	-13.55808	-218.72957	109.20551	119.63425	
